{"title":"Yadaan Teriyaan VIDEO Song - Rahat Fateh Ali Khan - Hero - truHD","uid":12280440,"size":16814776,"categoryP":"video","categoryS":"music_videos","magnet":"?xt=urn:btih:bd7b0610fe987bb8eb6fb1fa7caa7754bb2c5230&amp;dn=Yadaan+Teriyaan+VIDEO+Song+-+Rahat+Fateh+Ali+Khan+-+Hero+-+truHD&amp;tr=udp%3A%2F%2Ftracker.openbittorrent.com%3A80&amp;tr=udp%3A%2F%2Fopen.demonii.com%3A1337&amp;tr=udp%3A%2F%2Ftracker.coppersurfer.tk%3A6969&amp;tr=udp%3A%2F%2Fexodus.desync.com%3A6969","seeders":0,"leechers":0,"uploader":"Aainul","files":3,"time":1440407995,"description":"Seeding From High Speed Seedbox\n\nYadaan Teriyaan VIDEO Song - Rahat Fateh Ali Khan - Hero - truHD HEVC\n\nSource: WEB-DL\n\nSource File Info:\n\nGeneral\nFormat : MPEG-4\nFormat profile : Base Media\nCodec ID : isom\nFile size : 50.0 MiB\nDuration : 2mn 20s\nOverall bit rate : 2 993 Kbps\nWriting application : Lavf54.29.104\n\nVideo\nID : 1\nFormat : AVC\nFormat/Info : Advanced Video Codec\nFormat profile : &lt;a class=&quot;__cf_email__&quot; href=&quot;/cdn-cgi/l/email-protection&quot; data-cfemail=&quot;eaa2838d82aaa6dec4da&quot;&gt;[email&amp;#160;protected]&lt;/a&gt;&lt;script data-cfhash='f9e31' type=&quot;text/javascript&quot;&gt;\n/* &lt;![CDATA[ */!function(){try{var t=&quot;currentScript&quot;in document?document.currentScript:function(){for(var t=document.getElementsByTagName(&quot;script&quot;),e=t.length;e--;)if(t[e].getAttribute(&quot;data-cfhash&quot;))return t[e]}();if(t&amp;&amp;t.previousSibling){var e,r,n,i,c=t.previousSibling,a=c.getAttribute(&quot;data-cfemail&quot;);if(a){for(e=&quot;&quot;,r=parseInt(a.substr(0,2),16),n=2;a.length-n;n+=2)i=parseInt(a.substr(n,2),16)^r,e+=String.fromCharCode(i);e=document.createTextNode(e),c.parentNode.replaceChild(e,c)}t.parentNode.removeChild(t);}}catch(u){}}()/* ]]&gt; */&lt;/script&gt;\nFormat settings, CABAC : Yes\nFormat settings, ReFrames : 2 frames\nCodec ID : avc1\nCodec ID/Info : Advanced Video Coding\nDuration : 2mn 20s\nBit rate : 2 862 Kbps\nWidth : 1 920 pixels\nHeight : 1 080 pixels\nDisplay aspect ratio : 16:9\nFrame rate mode : Constant\nFrame rate : 25.000 fps\nColor space : YUV\nChroma subsampling : 4:2:0\nBit depth : 8 bits\nScan type : Progressive\nBits/(Pixel*Frame) : 0.055\nStream size : 47.8 MiB (96%)\n\nAudio\nID : 2\nFormat : AAC\nFormat/Info : Advanced Audio Codec\nFormat profile : LC\nCodec ID : 40\nDuration : 2mn 20s\nBit rate mode : Constant\nBit rate : 126 Kbps\nChannel(s) : 2 channels\nChannel positions : Front: L R\nSampling rate : 44.1 KHz\nCompression mode : Lossy\nStream size : 2.10 MiB (4%)\n\n\nEncoder: truHD HEVC Encoding Team\n\nEncoded File Info:\n\nGeneral\nFormat : MPEG-4\nFormat profile : Base Media\nCodec ID : isom\nFile size : 15.8 MiB\nDuration : 2mn 20s\nOverall bit rate : 946 Kbps\nWriting application : Lavf56.36.100\n\nVideo\nID : 1\nFormat : HEVC\nFormat/Info : High Efficiency Video Coding\nCodec ID : hev1\nCodec ID/Info : High Efficiency Video Coding\nDuration : 2mn 20s\nBit rate : 816 Kbps\nWidth : 1 920 pixels\nHeight : 1 080 pixels\nDisplay aspect ratio : 16:9\nFrame rate mode : Constant\nFrame rate : 25.000 fps\nBits/(Pixel*Frame) : 0.016\nStream size : 13.6 MiB (86%)\n\nAudio\nID : 2\nFormat : AAC\nFormat/Info : Advanced Audio Codec\nFormat profile : LC\nCodec ID : 40\nDuration : 2mn 20s\nBit rate mode : Constant\nBit rate : 126 Kbps\nChannel(s) : 2 channels\nChannel positions : Front: L R\nSampling rate : 44.1 KHz\nCompression mode : Lossy\nStream size : 2.10 MiB (13%)\n\nScreenShots:\n &lt;a href=&quot;\nhttp://i1.someimage.com/VgLaxiS.jpg&quot; rel=&quot;nofollow&quot; target=&quot;_NEW&quot;&gt;\nhttp://i1.someimage.com/VgLaxiS.jpg&lt;/a&gt;\n\nLike Us On FB And Request Accepted\n\nKickAssTorrents:  &lt;a href=&quot;\nhttps://kat.cr/user/Aainul/&quot; rel=&quot;nofollow&quot; target=&quot;_NEW&quot;&gt;\nhttps://kat.cr/user/Aainul/&lt;/a&gt;\nGloTorrents:  &lt;a href=&quot;\nhttps://glodls.to/user/Aainul&quot; rel=&quot;nofollow&quot; target=&quot;_NEW&quot;&gt;\nhttps://glodls.to/user/Aainul&lt;/a&gt;\nThePirateBay:  &lt;a href=&quot;\nhttps://thepiratebay.vg/user/Aainul/&quot; rel=&quot;nofollow&quot; target=&quot;_NEW&quot;&gt;\nhttps://thepiratebay.vg/user/Aainul/&lt;/a&gt;\n1337x Torrents:  &lt;a href=&quot;\nhttp://1337.to/user/Aainul/&quot; rel=&quot;nofollow&quot; target=&quot;_NEW&quot;&gt;\nhttp://1337.to/user/Aainul/&lt;/a&gt;\n\n\nNote: All Videos Uploaded By Me Are For Review Purpose. If You Like IT, Google IT And Buy IT - Thanks\n\n\nKing Regards\ntruHD HEVC Team\n\nShare Among Friends And Relatives","torrent":{"xt":"urn:btih:bd7b0610fe987bb8eb6fb1fa7caa7754bb2c5230","amp;dn":"Yadaan+Teriyaan+VIDEO+Song+-+Rahat+Fateh+Ali+Khan+-+Hero+-+truHD","amp;tr":["udp%3A%2F%2Ftracker.openbittorrent.com%3A80","udp%3A%2F%2Fopen.demonii.com%3A1337","udp%3A%2F%2Ftracker.coppersurfer.tk%3A6969","udp%3A%2F%2Fexodus.desync.com%3A6969"],"infoHash":"bd7b0610fe987bb8eb6fb1fa7caa7754bb2c5230","infoHashBuffer":{"type":"Buffer","data":[189,123,6,16,254,152,123,184,235,111,177,250,124,170,119,84,187,44,82,48]},"announce":[],"urlList":[]}}